<svg width="16" height="17" viewBox="0 0 16 17" fill="none" xmlns="http://www.w3.org/2000/svg">
<rect x="0.1" y="0.6" width="15.8" height="15.8" rx="4.9" stroke="#808080" stroke-width="0.2"/>
<path d="M7.99996 13.8333C7.63329 13.8333 7.31952 13.7029 7.05863 13.442C6.79774 13.1811 6.66707 12.8671 6.66663 12.5C6.66618 12.1329 6.79685 11.8191 7.05863 11.5586C7.32041 11.2982 7.63418 11.1675 7.99996 11.1666C8.36574 11.1657 8.67974 11.2964 8.94196 11.5586C9.20418 11.8209 9.33463 12.1346 9.33329 12.5C9.33196 12.8653 9.20152 13.1793 8.94196 13.442C8.6824 13.7046 8.3684 13.8351 7.99996 13.8333ZM7.99996 9.8333C7.63329 9.8333 7.31952 9.70285 7.05863 9.44196C6.79774 9.18108 6.66707 8.86707 6.66663 8.49996C6.66618 8.13285 6.79685 7.81908 7.05863 7.55863C7.32041 7.29819 7.63418 7.16752 7.99996 7.16663C8.36574 7.16574 8.67974 7.29641 8.94196 7.55863C9.20418 7.82085 9.33463 8.13463 9.33329 8.49996C9.33196 8.8653 9.20152 9.1793 8.94196 9.44196C8.6824 9.70463 8.3684 9.83507 7.99996 9.8333ZM7.99996 5.8333C7.63329 5.8333 7.31952 5.70285 7.05863 5.44196C6.79774 5.18108 6.66707 4.86707 6.66663 4.49996C6.66618 4.13285 6.79685 3.81907 7.05863 3.55863C7.32041 3.29819 7.63418 3.16752 7.99996 3.16663C8.36574 3.16574 8.67974 3.29641 8.94196 3.55863C9.20418 3.82085 9.33463 4.13463 9.33329 4.49996C9.33196 4.8653 9.20152 5.1793 8.94196 5.44196C8.6824 5.70463 8.3684 5.83507 7.99996 5.8333Z" fill="#808080"/>
</svg>
