<svg width="32" height="32" viewBox="0 0 32 32" fill="none" xmlns="http://www.w3.org/2000/svg">
<path d="M16 0.5C24.5604 0.5 31.5 7.43959 31.5 16C31.5 24.5604 24.5604 31.5 16 31.5C7.43959 31.5 0.5 24.5604 0.5 16C0.5 7.43959 7.43959 0.5 16 0.5Z" stroke="#EBEBEB"/>
<path d="M16 12.2933V14.5133" stroke="#808080" stroke-miterlimit="10" stroke-linecap="round"/>
<path d="M16.0134 9.33337C13.5601 9.33337 11.5734 11.32 11.5734 13.7734V15.1734C11.5734 15.6267 11.3867 16.3067 11.1534 16.6934L10.3067 18.1067C9.78672 18.98 10.1467 19.9534 11.1067 20.2734C14.2934 21.3334 17.7401 21.3334 20.9267 20.2734C21.8267 19.9734 22.2134 18.92 21.7267 18.1067L20.8801 16.6934C20.6467 16.3067 20.4601 15.62 20.4601 15.1734V13.7734C20.4534 11.3334 18.4534 9.33337 16.0134 9.33337Z" stroke="#808080" stroke-miterlimit="10" stroke-linecap="round"/>
<path d="M18.22 20.5466C18.22 21.7666 17.22 22.7666 16 22.7666C15.3934 22.7666 14.8334 22.5133 14.4334 22.1133C14.0334 21.7133 13.78 21.1533 13.78 20.5466" stroke="#808080" stroke-miterlimit="10"/>
</svg>
